<svg width="100" height="100" viewBox="0 0 100 100" fill="none" xmlns="http://www.w3.org/2000/svg">
<style>
@media (prefers-color-scheme: light) {
    path {
    fill: black;
    }
}
</style>
<path d="M69.5684 44.7619C68.5493 44.7619 67.5345 44.2912 66.8406 43.4027C65.6394 41.8543 65.9169 39.6506 67.3957 38.4761C71.6067 35.0978 74.0092 30.0789 74.0092 24.6331C74.0092 14.9206 66.2378 7.03804 56.6623 7.03804C47.0868 7.03804 39.3154 14.9206 39.3154 24.6331C39.3154 25.9923 39.4541 27.356 39.7794 28.7152C40.2434 30.5935 39.0855 32.5157 37.1904 32.938C35.2953 33.3603 33.4434 32.1858 33.0271 30.312C32.6108 28.4821 32.381 26.5599 32.381 24.6331C32.381 11.0278 43.2532 0 56.6667 0C70.0802 0 80.9524 11.0278 80.9524 24.6331C80.9524 32.2342 77.574 39.2722 71.7022 43.9658C71.056 44.4804 70.3144 44.7179 69.5728 44.7179L69.5684 44.7619Z" fill="#FAE2C8"/>
<path d="M12.9752 80C11.0899 80 9.52381 78.4293 9.52381 76.5385V72.8477C9.52381 49.1232 17.6216 34.217 35.0641 26.0478C36.8113 25.2171 38.8391 26.0002 39.6674 27.7094C40.4958 29.4617 39.7149 31.4954 38.0108 32.3262C23.1008 39.3401 16.4266 51.8492 16.4266 72.8477V76.5385C16.4266 78.4293 14.8605 80 12.9752 80Z" fill="#FAE2C8"/>
<path d="M96.5386 81.8586H96.168L66.9101 78.7521C55.698 77.5687 44.3028 77.5687 33.0906 78.7521L3.83279 81.8586C1.92707 82.1036 0.204447 80.5781 0.0168896 78.5533C-0.170634 76.5332 1.22485 74.7072 3.13503 74.5084L32.3929 71.4019C44.0672 70.1676 55.9291 70.1676 67.6079 71.4019L96.8657 74.5084C98.7714 74.7072 100.167 76.5285 99.9839 78.5533C99.7963 80.4764 98.3092 81.9048 96.4951 81.9048L96.5386 81.8586Z" fill="#FAE2C8"/>
<path d="M58.7057 78.0952C57.7266 78.0952 56.7476 77.6728 56.0963 76.9202C54.8375 75.4636 54.9774 73.259 56.4241 71.9431C62.3466 66.6844 71.3417 55.2341 65.3275 37.0201C64.7199 35.1894 65.699 33.1695 67.5172 32.5623C69.3355 31.9506 71.3417 32.9363 71.9448 34.767C79.4976 57.6281 66.8615 72.0355 61.0353 77.2019C60.384 77.8136 59.5449 78.0952 58.7057 78.0952Z" fill="#FAE2C8"/>
<path d="M76.7849 35.2381C75.462 35.2381 74.229 34.4107 73.6339 33.0439C72.859 31.1925 73.6339 29.0439 75.3678 28.2165L79.0197 26.4612L76.3695 25.0487C74.6784 24.1207 73.9934 21.9264 74.8154 20.1254C75.6845 18.3197 77.7395 17.5883 79.4263 18.466L88.5582 23.3436C89.7441 23.979 90.4762 25.2956 90.4762 26.7081C90.4762 28.1206 89.6542 29.3915 88.4212 29.9766L78.099 34.8543C77.6409 35.0508 77.1871 35.1468 76.729 35.1468L76.7849 35.2381Z" fill="#FAE2C8"/>
<path d="M23.2592 100H22.3292C15.252 100 9.52381 94.3148 9.52381 87.2907V76.7999C9.52381 74.9063 11.1087 73.3333 13.0166 73.3333C14.9245 73.3333 16.5094 74.9063 16.5094 76.7999V87.2907C16.5094 90.4799 19.1159 93.0668 22.3292 93.0668H23.2592L23.4906 89.2752C23.4906 87.3816 25.0755 85.8086 26.9834 85.8086C28.8913 85.8086 30.4762 87.3816 30.4762 89.2752V92.8328C30.4762 96.763 27.2148 99.9956 23.2592 99.9956L23.2592 100Z" fill="#FAE2C8"/>
<path d="M31.0023 100H30.0726C26.1134 100 22.8571 96.6969 22.8571 92.6909V89.3878C22.8571 87.4556 24.4417 85.8504 26.3492 85.8504C28.2567 85.8504 29.8413 87.4556 29.8413 89.3878V92.6909L31.0068 92.9252C34.2195 92.9252 36.8254 90.2855 36.8254 87.0311V74.0136C36.8254 72.0813 38.41 70.4762 40.3175 70.4762C42.225 70.4762 43.8095 72.0813 43.8095 74.0136V87.0311C43.8095 94.1987 38.0825 100 31.0068 100L31.0023 100Z" fill="#FAE2C8"/>
<path d="M31.209 79.0476C29.5867 79.0476 28.1565 77.9704 27.7275 76.3744C27.2493 74.497 28.3934 72.5756 30.3509 72.1052C47.1325 67.9766 49.9928 51.1416 51.0385 44.7619L58.0952 45.9359C56.9511 52.7815 53.3758 73.7012 32.0671 78.9069C31.781 78.9993 31.495 78.9993 31.209 78.9993V79.0476Z" fill="#FAE2C8"/>
</svg>
